<svg width="17" height="17" viewBox="0 0 17 17" fill="none" xmlns="http://www.w3.org/2000/svg">
<g clip-path="url(#clip0_33_9)">
<path d="M0.333313 3.82126C0.333313 3.33209 0.729861 2.93555 1.21903 2.93555H6.81884C7.30801 2.93555 7.70456 3.33209 7.70456 3.82126C7.70456 4.31043 7.30801 4.70698 6.81884 4.70698H1.21903C0.72986 4.70698 0.333313 4.31043 0.333313 3.82126ZM0.333313 8.24983C0.333313 7.76067 0.729861 7.36412 1.21903 7.36412H10.8876C11.3768 7.36412 11.7733 7.76067 11.7733 8.24983C11.7733 8.739 11.3768 9.13555 10.8876 9.13555H1.21903C0.729862 9.13555 0.333313 8.739 0.333313 8.24983ZM0.333313 12.6784C0.333313 12.1892 0.729861 11.7927 1.21903 11.7927H15.4476C15.9368 11.7927 16.3333 12.1892 16.3333 12.6784C16.3333 13.1676 15.9368 13.5641 15.4476 13.5641H1.21903C0.729861 13.5641 0.333313 13.1676 0.333313 12.6784Z" fill="white"/>
</g>
<defs>
<clipPath id="clip0_33_9">
<rect width="16" height="15.9429" fill="white" transform="translate(0.333313 0.278625)"/>
</clipPath>
</defs>
</svg>
