<svg width="48" height="48" viewBox="0 0 48 48" fill="none" xmlns="http://www.w3.org/2000/svg">
<circle cx="24" cy="24" r="24" fill="#F5F5F5"/>
<path d="M22.3332 18.1667H25.6665C25.6665 17.7246 25.4909 17.3007 25.1783 16.9882C24.8658 16.6756 24.4419 16.5 23.9998 16.5C23.5578 16.5 23.1339 16.6756 22.8213 16.9882C22.5088 17.3007 22.3332 17.7246 22.3332 18.1667ZM21.0832 18.1667C21.0832 17.7836 21.1586 17.4044 21.3052 17.0505C21.4518 16.6966 21.6666 16.3751 21.9374 16.1043C22.2083 15.8334 22.5298 15.6186 22.8837 15.472C23.2375 15.3254 23.6168 15.25 23.9998 15.25C24.3829 15.25 24.7621 15.3254 25.116 15.472C25.4699 15.6186 25.7914 15.8334 26.0622 16.1043C26.3331 16.3751 26.5479 16.6966 26.6945 17.0505C26.8411 17.4044 26.9165 17.7836 26.9165 18.1667H31.7082C31.8739 18.1667 32.0329 18.2325 32.1501 18.3497C32.2673 18.4669 32.3332 18.6259 32.3332 18.7917C32.3332 18.9574 32.2673 19.1164 32.1501 19.2336C32.0329 19.3508 31.8739 19.4167 31.7082 19.4167H30.6082L29.6332 29.5092C29.5584 30.2825 29.1982 31.0002 28.6229 31.5224C28.0476 32.0445 27.2984 32.3336 26.5215 32.3333H21.4782C20.7014 32.3334 19.9524 32.0442 19.3773 31.5221C18.8022 30.9999 18.4421 30.2823 18.3673 29.5092L17.3915 19.4167H16.2915C16.1257 19.4167 15.9668 19.3508 15.8496 19.2336C15.7324 19.1164 15.6665 18.9574 15.6665 18.7917C15.6665 18.6259 15.7324 18.4669 15.8496 18.3497C15.9668 18.2325 16.1257 18.1667 16.2915 18.1667H21.0832ZM22.7498 22.125C22.7498 21.9592 22.684 21.8003 22.5668 21.6831C22.4496 21.5658 22.2906 21.5 22.1248 21.5C21.9591 21.5 21.8001 21.5658 21.6829 21.6831C21.5657 21.8003 21.4998 21.9592 21.4998 22.125V28.375C21.4998 28.5408 21.5657 28.6997 21.6829 28.8169C21.8001 28.9342 21.9591 29 22.1248 29C22.2906 29 22.4496 28.9342 22.5668 28.8169C22.684 28.6997 22.7498 28.5408 22.7498 28.375V22.125ZM25.8748 21.5C25.7091 21.5 25.5501 21.5658 25.4329 21.6831C25.3157 21.8003 25.2498 21.9592 25.2498 22.125V28.375C25.2498 28.5408 25.3157 28.6997 25.4329 28.8169C25.5501 28.9342 25.7091 29 25.8748 29C26.0406 29 26.1996 28.9342 26.3168 28.8169C26.434 28.6997 26.4998 28.5408 26.4998 28.375V22.125C26.4998 21.9592 26.434 21.8003 26.3168 21.6831C26.1996 21.5658 26.0406 21.5 25.8748 21.5Z" fill="#D03636"/>
</svg>
